<svg xmlns="http://www.w3.org/2000/svg" viewBox="0 0 1200 600"><defs><linearGradient id="a" x1="0%" y1="0%" x2="100%" y2="100%"><stop offset="0%" stop-color="#004466"/><stop offset="50%" stop-color="#006688"/><stop offset="100%" stop-color="#0099aa"/></linearGradient></defs><rect width="1200" height="600" fill="url(#a)"/><g fill="#003355" opacity=".4"><path d="M100,320 C130,290 170,280 210,290 C260,300 290,310 340,305 C370,302 385,310 395,305 C400,302 405,305 400,310 C390,318 370,320 340,318 C310,316 280,320 240,325 C190,332 140,335 110,330 C100,328 95,325 100,320Z" transform="translate(0,0) scale(1)"/><path d="M100,320 C130,290 170,280 210,290 C260,300 290,310 340,305 C370,302 385,310 395,305 C400,302 405,305 400,310 C390,318 370,320 340,318 C310,316 280,320 240,325 C190,332 140,335 110,330 C100,328 95,325 100,320Z" transform="translate(350,30) scale(.8)"/><path d="M100,320 C130,290 170,280 210,290 C260,300 290,310 340,305 C370,302 385,310 395,305 C400,302 405,305 400,310 C390,318 370,320 340,318 C310,316 280,320 240,325 C190,332 140,335 110,330 C100,328 95,325 100,320Z" transform="translate(550,-40) scale(.6)"/></g><g opacity=".1" fill="#fff"><circle cx="300" cy="150" r="2"/><circle cx="500" cy="100" r="1.5"/><circle cx="800" cy="180" r="2"/><circle cx="200" cy="450" r="1"/><circle cx="900" cy="400" r="1.5"/></g><path d="M0,500 Q300,470 600,490 T1200,480 L1200,600 L0,600Z" fill="#002a40" opacity=".3"/></svg>