<svg xmlns="http://www.w3.org/2000/svg" viewBox="0 0 1200 600"><defs><linearGradient id="a" x1="0%" y1="0%" x2="0%" y2="100%"><stop offset="0%" stop-color="#0077aa"/><stop offset="100%" stop-color="#004466"/></linearGradient></defs><rect width="1200" height="600" fill="url(#a)"/><path d="M0,300 C200,270 400,330 600,300 C800,270 1000,330 1200,300 L1200,600 L0,600Z" fill="#005577" opacity=".4"/><path d="M0,350 C200,320 400,380 600,350 C800,320 1000,380 1200,350 L1200,600 L0,600Z" fill="#004466" opacity=".4"/><path d="M0,420 C200,390 400,450 600,420 C800,390 1000,450 1200,420 L1200,600 L0,600Z" fill="#003355" opacity=".5"/><g opacity=".15" fill="#fff"><circle cx="300" cy="200" r="2"/><circle cx="600" cy="150" r="1.5"/><circle cx="900" cy="230" r="1"/></g></svg>