<svg xmlns="http://www.w3.org/2000/svg" viewBox="0 0 1200 600"><defs><linearGradient id="a" x1="0%" y1="0%" x2="0%" y2="100%"><stop offset="0%" stop-color="#001f3f"/><stop offset="40%" stop-color="#003366"/><stop offset="70%" stop-color="#006994"/><stop offset="100%" stop-color="#00a8cc"/></linearGradient></defs><rect width="1200" height="600" fill="url(#a)"/><ellipse cx="600" cy="50" rx="300" ry="400" fill="rgba(255,255,255,0.08)"/><g fill="#002244" opacity=".5" transform="translate(300 260) scale(1.2)"><path d="M0,50 C20,20 60,0 120,10 C180,20 250,30 300,25 C350,20 380,30 400,20 C410,15 420,18 410,25 C400,32 380,35 350,35 C320,35 280,40 250,45 C200,55 150,60 100,65 C60,68 30,65 10,60 C0,57-5,55 0,50Z"/></g><g opacity=".15" fill="#fff"><circle cx="200" cy="150" r="2"/><circle cx="400" cy="80" r="1.5"/><circle cx="700" cy="120" r="1"/><circle cx="900" cy="200" r="2.5"/><circle cx="150" cy="350" r="1.5"/><circle cx="800" cy="300" r="2"/><circle cx="1000" cy="450" r="1.5"/></g></svg>