<svg xmlns="http://www.w3.org/2000/svg" viewBox="0 0 1200 600"><defs><linearGradient id="a" x1="0%" y1="0%" x2="0%" y2="100%"><stop offset="0%" stop-color="#005577"/><stop offset="50%" stop-color="#003d5c"/><stop offset="100%" stop-color="#002233"/></linearGradient></defs><rect width="1200" height="600" fill="url(#a)"/><path d="M0,200 Q300,180 600,220 T1200,200 L1200,210 Q900,240 600,230 Q300,220 0,210Z" fill="rgba(255,255,255,0.05)"/><path d="M0,350 Q300,330 600,370 T1200,350 L1200,360 Q900,390 600,380 Q300,370 0,360Z" fill="rgba(255,255,255,0.03)"/><g transform="translate(500,150)" fill="#002244" opacity=".5"><path d="M100,200 C95,150 80,100 50,60 C30,35 0,20-20,30 C-10,35 10,50 25,80 C40,110 50,150 55,190Z"/><path d="M100,200 C105,150 120,100 150,60 C170,35 200,20 220,30 C210,35 190,50 175,80 C160,110 150,150 145,190Z"/><ellipse cx="100" cy="210" rx="30" ry="8" opacity=".3"/></g><g opacity=".1" fill="#fff"><circle cx="200" cy="100" r="2"/><circle cx="800" cy="150" r="1.5"/><circle cx="400" cy="400" r="1"/><circle cx="1000" cy="350" r="2"/></g></svg>